<svg width="496" height="387" viewBox="0 0 496 387" fill="none" xmlns="http://www.w3.org/2000/svg">
<path fill-rule="evenodd" clip-rule="evenodd" d="M0.252686 106.074C4.99869 141.666 9.74369 177.258 14.4897 212.85L18.3217 241.592C18.8057 245.219 18.3487 252.373 20.1917 255.62C20.8427 256.765 22.5537 257.309 23.8117 257.984C28.1417 260.309 32.4727 262.634 36.8027 264.959C73.4327 284.625 110.063 304.291 146.691 323.957C181.845 342.83 216.999 361.704 252.152 380.577C255.79 382.531 261.674 387.627 265.601 386.284C269.334 385.008 273.149 381.86 276.538 379.875C283.044 376.062 289.549 372.25 296.055 368.437C335.421 345.367 374.786 322.296 414.152 299.226C430.394 289.708 446.635 280.19 462.877 270.671C467.32 268.067 471.765 265.463 476.209 262.858C478.533 261.496 478.835 261.544 479.75 259.232C483.17 250.589 484.754 240.688 487.174 231.72C489.841 221.837 492.508 211.954 495.175 202.071C496.364 197.661 495.806 197.092 493.866 192.835C490.028 184.409 486.19 175.984 482.352 167.559C473.833 148.859 465.315 130.159 456.795 111.459C453.35 103.897 445.052 98.5757 439.078 93.0137L346.321 6.65472C343.965 4.46072 341.609 2.26773 339.253 0.0737305C338.865 13.2577 336.26 27.4307 340.081 40.1667C346.352 61.0677 352.622 81.9687 358.892 102.87C361.923 112.973 364.953 123.075 367.984 133.177C368.547 135.054 371.975 142.497 371.059 144.148C370.551 145.063 366.221 145.989 365.283 146.345C361.254 147.878 357.225 149.411 353.195 150.944C341.969 155.215 330.743 159.486 319.517 163.756C309.42 167.598 299.323 171.439 289.226 175.28C285.802 176.583 281.781 178.995 278.165 178.794C274.93 178.614 271.252 177.013 268.122 176.207C262.619 174.79 257.115 173.372 251.612 171.954C240.802 169.17 229.991 166.386 219.181 163.601C207.019 160.468 196.748 151.267 186.347 144.457C168.469 132.751 150.591 121.045 132.714 109.34C128.621 106.66 128.606 105.131 126.975 100.238C123.31 89.2417 119.644 78.2457 115.979 67.2497C114.022 61.3787 111.615 55.4827 110.137 49.4717C107.699 39.5517 106.253 29.2827 104.322 19.2527C103.74 16.2267 103.157 13.1997 102.575 10.1737C95.0877 13.2117 87.6007 16.2507 80.1127 19.2897C79.0277 19.7297 73.7397 21.0427 73.2697 22.1217C72.9717 22.8037 74.5447 25.8987 74.7697 26.5637C80.9777 44.9507 87.1857 63.3367 93.3947 81.7227C95.3477 87.5067 97.2997 93.2897 99.2527 99.0737C94.5867 91.7407 89.9197 84.4067 85.2527 77.0737C81.5867 89.4067 77.9197 101.741 74.2527 114.074C65.5867 104.074 56.9197 94.0737 48.2527 84.0737C45.2527 94.0737 42.2527 104.074 39.2527 114.074C29.9197 101.741 20.5867 89.4067 11.2527 77.0737C10.1437 83.5097 9.03371 89.9457 7.92371 96.3817C7.58871 98.3247 7.6557 103.898 6.3627 105.436C5.2977 106.702 2.23169 106.074 0.252686 106.074Z" fill="#56AEFF"/>
</svg>
