<svg width="1024" height="768" viewBox="0 0 1024 768" fill="none" xmlns="http://www.w3.org/2000/svg">
<rect width="1024" height="768" fill="#F5F5F5"/>
<g clip-path="url(#clip0_0_1)">
<path fill-rule="evenodd" clip-rule="evenodd" d="M795.003 112.665C795.365 115.792 799.247 113.404 799.61 115.099C799.839 116.164 795.843 118.807 794.981 119.535C797.765 121.213 801.319 117.347 803.406 115.727C804.481 116.894 804.845 117.507 803.857 118.842C802.115 121.199 802.194 118.076 800.122 119.716C800.985 121.166 801.743 120.335 802.839 119.945C802.362 122.735 803.431 120.969 804.268 122.736C804.948 124.173 804.865 125.235 805.068 126.84C804.084 129.1 803.101 131.361 802.117 133.621C800.934 136.34 801.286 137.214 798.392 136.305C798.718 135.741 800.883 132.983 800.707 132.305C800.507 131.53 797.546 130.458 796.764 129.807C795.388 128.662 795.403 127.68 794.525 126.45C794.874 125.306 794.603 124.771 793.71 124.848L792.724 127.499C792.806 129.38 794.395 129.204 795.332 131.001C796.768 133.751 795.964 132.128 794.791 134.341C793.639 136.515 793.51 139.29 791.616 140.383C792.634 140.83 793.651 141.277 794.669 141.723C792.293 144.331 797.235 143.061 798.052 142.808C797.216 144.583 796.38 146.358 795.545 148.133C793.04 146.731 791.804 144.073 790.136 141.878L786.326 148.96C787.59 148.843 788.854 148.727 790.116 148.61C789.94 148.943 788.322 151.227 788.46 151.735C789.025 153.806 793.325 152.638 792.85 155.347C792.788 155.694 788.934 159.581 788.273 159.956C790.21 160.826 791.086 160.465 790.392 162.75L787.694 161.119C786.928 162.494 786.041 163.837 785.553 165.343C785.646 166.328 785.471 167.261 785.025 168.143C784.495 168.932 783.898 169.668 783.234 170.35C782.708 171.735 782.539 179.295 783.173 180.528C784.587 178.701 787.748 181.926 782.413 181.926C780.077 181.926 780.234 181.44 779.341 183.492C778.639 185.107 778.259 186.516 780.25 186.671C778.753 189.62 779.073 191.892 778.938 195.035C778.828 197.581 778.114 200.112 777.585 202.61C778.059 201.929 778.533 201.249 779.007 200.568C780.284 203.292 779.311 205.586 778.704 208.501C777.378 206.75 777.216 209.874 776.082 209.551C773.769 208.891 775.501 208.405 774.561 206.888C773.746 205.574 773.831 205.197 772.325 204.394C770.327 203.329 766.825 203.289 764.565 202.913C760.765 202.279 756.96 202.12 753.116 201.953C738.726 201.329 724.386 201.169 709.998 201.96C696.761 202.688 683.203 204.544 670.223 207.058C656.404 209.734 642.888 212.202 629.504 216.729C626.918 217.604 624.329 219.429 621.744 220.07C619.291 220.679 616.833 220.671 614.276 221.559C608.153 223.685 601.818 225.297 595.648 227.326C588.999 229.513 581.803 231.337 575.475 234.364C572.727 235.679 570.232 237.462 567.484 238.794C564.896 240.049 560.544 241.194 559.177 244.092C558.644 245.222 558.735 246.041 559.066 247.212C559.73 249.562 560.254 249.308 562.058 249.149C564.568 248.927 567.816 246.974 570.253 246.206C576.925 244.104 583.677 242.421 590.462 240.737C602.647 237.712 614.88 232.356 626.904 230.261C634.035 229.019 640.791 225.641 647.961 224.365C649.534 224.086 654.088 221.841 655.379 222.617C655.721 222.822 656.559 225.286 656.854 225.875C657.913 227.991 659.127 230.034 660.549 231.929C664.835 237.643 670.584 242.245 675.715 247.169C681.576 252.794 686.669 258.999 692.078 265.037C692.548 264.492 693.017 263.947 693.486 263.403C692.991 267.216 695.847 269.966 698.182 272.555C700.953 275.631 703.182 278.522 705.367 282.029C707.16 284.905 709.454 287.423 711.48 290.043C713.472 292.621 714.798 295.732 716.631 298.51C720.839 304.891 724.98 311.395 729.224 317.69C731.222 320.653 732.8 323.987 734.381 327.36C735.636 330.037 739.412 335.511 739.412 338.108C739.141 339.38 741.899 347.032 738.951 343.426C738.481 344.154 738.01 344.882 737.538 345.61C738.345 345.272 739.15 344.934 739.957 344.596C737.509 346.813 742.081 347.098 742.182 348.337C741.774 348.73 741.367 349.123 740.96 349.516C740.264 350.95 739.358 351.136 738.245 350.074C737.018 350.149 736.773 349.463 735.405 349.92C736.711 351.959 738.394 350.67 739.056 353.488C739.638 355.971 737.793 356.504 735.844 357.972L735.723 358.064L735.68 358.211C735.255 359.481 734.05 358.94 732.708 358.663C729.498 358.002 725.951 356.735 722.825 355.76C716.068 353.653 709.259 351.877 702.273 350.436C686.333 347.147 670.521 347.302 654.436 346.262C654.859 344.5 654.862 344.655 654.36 343.563C655.004 344.963 651.119 343.135 654.047 346.228C646.573 347.45 638.5 346.531 630.92 346.938C631.273 346.152 632.084 345.248 631.326 344.679C627.737 349.868 615.745 347.643 609.817 348.386C606.337 348.823 602.898 349.66 599.429 350.211L597.969 350.44C596.751 350.634 595.533 350.846 594.343 351.168C592.81 351.581 590.256 353.278 588.803 352.884C590.93 348.596 588.477 352.308 588.143 352.357C587.133 352.506 585.394 352.846 583.943 352.846C585.597 346.205 588.434 340.086 589.577 333.246C590.29 328.982 592.248 322.114 588.032 319.092C585.722 317.436 581.936 317.077 579.261 316.514C576.329 315.897 571.206 315.922 568.655 314.265C566.663 312.97 566.242 311.78 563.633 310.79C560.623 309.648 559.235 308.514 556.194 309.437C557.431 307.888 559.164 306.758 556.736 305.175C555.741 304.528 553.791 305.399 553.442 303.983C551.64 305.256 552.067 306.284 551.585 308.029C551.629 308.767 551.823 309.471 552.169 310.139C551.215 310.523 550.262 310.907 549.308 311.291C549.914 309.662 548.135 310.633 547.78 309.832C547.251 308.635 547.565 306.808 547.565 305.509C545.599 306.13 543.543 306.898 542.683 308.944C540.276 307.509 541.232 307.411 542.466 305.258C540.445 304.78 540.017 305.82 539.71 307.494C538.644 307.164 537.576 306.835 536.51 306.506C538.914 306.489 539.491 304.611 539.548 302.571C538.613 302.875 537.678 303.18 536.742 303.484C536.55 304.471 536.358 305.458 536.166 306.445C534.693 307.693 530.861 305.439 529.618 304.794C525.284 302.547 523.698 301.897 524.309 296.791C524.82 292.511 525.951 288.21 526.202 283.908C526.481 279.129 525.923 274.018 525.504 269.254C524.692 260.035 523.385 250.95 522.927 241.693C522.68 236.681 522.404 231.668 522.207 226.653C522.051 222.667 520.675 218.281 525.648 217.927C525.04 215.997 526.861 213.765 528.74 212.708C529.397 211.211 530.115 211.077 530.896 212.308C531.574 212.521 532.204 212.421 532.787 212.006C535.525 211.385 538.809 207.5 541.267 206.099C543.677 204.726 548.932 202.73 550.653 200.418C552.317 198.181 549.8 198.433 550.309 196.383C551.003 193.581 553.532 197.605 553.92 198.165C554.765 197.316 557.993 195.724 557.955 194.49C557.164 194.349 556.374 194.208 555.583 194.067C556.447 193.568 558.364 192.078 559.369 191.881C561.077 191.546 560.436 191.113 561.805 192.996C562.281 192.258 563.439 189.833 564.164 189.342C564.51 189.107 566.566 188.951 566.997 188.799C569.235 188.008 569.009 186.267 570.654 185.439C571.452 185.038 572.434 185.654 573.104 185.362C574.174 184.894 574.177 183.297 575.148 182.718C575.988 182.216 578.118 182.633 579.121 182.268C580.783 181.661 580.71 181.096 581.95 179.988C583.689 178.435 585.29 178.66 587.227 177.483C589.235 176.263 588.927 173.516 590.749 172.992C593.182 172.293 593.805 174.597 595.128 172.321C595.426 171.81 594.076 171.046 594.923 170.226C595.967 169.216 596.399 170.421 596.878 171.206L598.53 168.089C601.178 169.539 600.066 167.669 602.087 166.673C602.984 166.231 603.723 167.104 604.706 166.57C605.429 166.178 605.554 165.324 606.073 164.795C607.071 163.778 607.623 162.382 609.169 161.898C608.61 162.072 613.19 161.94 612.781 161.744C612.336 161.09 611.89 160.436 611.444 159.782C613.841 159.782 615.934 160.02 618.253 159.3C619.074 159.046 620.357 158.654 621.04 158.132C622.917 156.697 622.494 157.047 622.494 154.411C625.083 156.059 628.379 155.483 630.934 153.572C632.268 152.574 633.123 151.38 634.586 150.478C635.214 150.153 635.853 149.849 636.501 149.567C637.313 148.727 638.126 148.719 638.941 149.544C640.093 149.235 640.08 149.022 640.973 148.463C641.229 147.957 641.501 147.46 641.793 146.973C642.751 146.873 643.695 146.7 644.627 146.454C648.244 145.481 650.428 143.067 653.785 145.206C654.214 144.331 654.644 143.455 655.072 142.579C656.501 144.811 657.478 142.679 659.374 141.775C660.169 141.396 661.201 141.302 661.919 140.956L663.133 141.243C663.476 140.183 663.818 139.123 664.16 138.063C664.851 138.332 667.59 139.803 668.413 139.725C669.593 139.614 671.003 137.617 672.146 137.24C673.89 136.665 673.265 137.425 674.978 137.437C676.295 137.446 676.916 137.633 678.054 136.527C674.208 135.528 679.06 135.057 680.681 134.719C683.206 134.193 684.507 134.755 686.261 132.76H684.44C686.237 131.125 685.632 131.702 687.524 131.862C688.12 131.911 690.712 133.334 690.717 131.436C693.162 132.877 693.189 132.88 695.71 132.23C696.826 131.942 697.776 131.005 699.003 130.983C700.2 130.962 701.058 131.503 702.126 131.387C702.765 131.319 705.002 130.48 705.758 130.205C706.957 129.768 707.747 128.835 708.894 128.474C710.156 128.075 711.762 128.549 713.088 128.258C717.031 127.39 719.345 125.03 723.614 126.308C724.07 122.487 728.832 123.337 731.395 123.731C733.179 124.006 734.088 124.728 735.935 123.854C737.439 123.143 738.296 122.015 739.97 121.447C741.254 121.011 742.984 120.694 744.325 120.416C745.154 120.154 746.001 120.07 746.866 120.165C747.735 120.287 748.464 120.665 749.051 121.298L749.16 121.423C749.293 121.108 751.313 119.611 751.081 119.796C752.589 118.589 753.296 119.05 754.223 116.7L750.991 116.018C752.655 115.906 753.905 115.714 755.385 116.361C756.408 116.808 758.127 119.177 759.152 119.179C761.005 119.181 761.653 116.57 761.469 115.211C763.024 118.832 764.351 119.435 767.843 117.584C768.253 117.366 768.664 117.149 769.074 116.931C769.905 116.06 770.731 116.076 771.553 116.98L773.017 117.777C773.604 116.8 774.19 115.824 774.778 114.847C776.024 116.563 777.208 116.647 779.24 116.246C780.641 115.969 783.517 113.43 784.55 113.431C785.149 113.431 785.914 114.891 786.913 115.176C788.566 115.65 791.135 114.458 791.724 112.876C792.037 113.536 792.35 114.197 792.662 114.858C793.443 114.128 794.227 113.4 795.003 112.665ZM735.67 358.052L735.667 358.108L735.723 358.064L735.724 358.062L735.67 358.052ZM733.641 354.607V357.682L734.682 357.872L735.67 358.052L735.68 357.884C735.724 356.405 734.966 355.309 733.641 354.607ZM641.621 342.373C641.296 343.369 640.972 344.366 640.648 345.362C641.741 345.451 642.835 345.54 643.929 345.63C643.159 344.544 642.39 343.459 641.621 342.373ZM513.194 263.579C515.585 264.277 515.552 264.192 516.032 266.404C518.763 278.994 510.313 293.434 516.517 305.402C498.381 305.255 480.208 305.617 462.178 307.742C462.178 300.886 462.403 294.045 461.885 287.2C461.65 284.093 461.299 280.997 460.982 277.898C460.581 273.965 460.708 274.195 463.927 273.518C465.618 273.162 466.223 272.09 467.839 271.437C469.052 270.946 469.596 271.55 470.792 271.718C472.931 272.02 472.957 271.661 474.917 271.243C479.124 270.346 482.697 270.666 486.021 267.525C487.744 267.376 487.186 268.972 488.387 268.816C489.26 268.702 489.816 267.072 490.707 266.683C493.478 265.47 498.091 265.766 501.123 265.387C504.22 265.001 506.961 263.604 509.926 263.19C511.147 263.02 512.037 263.241 513.194 263.579ZM548.178 299.915C547.593 302.092 545.025 299.258 544.985 300.966L544.988 301.117L544.993 301.078C545.128 300.791 547.725 304.228 547.572 304.113C548.967 305.164 549.78 305.065 551.361 303.859C548.531 303.752 548.843 302.006 548.178 299.915ZM556.064 302.991C557.097 303.559 557.413 302.106 557.948 301.219C556.794 300.644 556.624 301.982 556.064 302.991ZM552.867 293.52C553.269 294.934 553.24 296.018 553.24 297.478C555.629 297.14 556.38 296.966 556.424 294.425L555.147 295.228C554.477 293.901 554.329 293.798 552.867 293.52ZM534.379 295.887C534.92 295.539 535.461 295.19 536.002 294.841C535.204 293.693 533.785 295.058 534.379 295.887ZM540.421 274.761C541.111 274.399 541.803 274.037 542.493 273.675C540.701 271.39 540.57 272.157 540.421 274.761ZM537.924 256.637H535.208C535.74 258.383 537.924 258.759 537.924 256.637ZM804.027 155.055C804.647 155.417 805.268 155.779 805.888 156.14C804.276 157.609 802.294 159.09 803.864 160.812C805.111 162.179 810.933 162.831 812.677 163.329C812.072 164.025 810.825 165.927 810 166.406C809.346 166.785 808.749 165.284 807.431 166.779C809.617 167.913 809.031 167.054 808.463 169.459C808.128 170.878 806.929 172.402 806.254 173.675C804.609 176.772 802.926 179.849 801.201 182.902C797.662 189.163 793.936 195.32 790.021 201.354C789.361 197.946 791.249 194.127 792.228 190.839C793.46 186.701 794.694 182.565 795.934 178.43C798.327 170.462 800.475 162.577 804.027 155.055ZM709.04 165.452C707.271 165.903 706.112 166.197 704.283 166.663C706.94 167.509 706.94 167.509 709.04 165.452ZM787.365 150.093C785.109 151.149 784.868 151.916 786.693 153.208C786.91 152.203 787.069 151.466 787.365 150.093ZM787.091 125.104C786.785 126.445 784.888 125.155 784.468 126.135C783.506 128.377 786.564 128.073 787.666 127.938C787.475 126.993 787.282 126.049 787.091 125.104ZM799.875 123.402C799.271 126.269 799.271 126.269 802.067 126.7C801.333 125.596 800.718 124.67 799.875 123.402ZM749.16 121.423L749.155 121.454C749.156 121.465 749.165 121.473 749.18 121.476L749.208 121.477L749.16 121.423Z" fill="#56AEFF"/>
<path fill-rule="evenodd" clip-rule="evenodd" d="M395.602 421.715C395.178 423.898 394.118 424.926 395.229 426.931C396.172 428.634 398.876 429.749 400.691 429.318L395.602 421.715ZM346.428 344.069L337.475 347.138C339.922 349.539 342.254 352.063 344.952 354.195L346.428 344.069ZM494.107 351.929C489.837 349.777 485.054 349.534 480.373 349.258C481.084 353.101 481.797 356.945 482.51 360.788C486.375 357.835 490.242 354.882 494.107 351.929ZM391.574 649.424C390.722 647.915 384.91 636.256 383.702 636.855C383.061 637.172 383.011 643.663 382.917 644.586C382.584 647.87 382.25 651.153 381.917 654.437C385.355 653.223 389.027 652.216 391.574 649.424ZM350.966 555.17C351.845 557.746 352.725 560.323 353.604 562.9C354.022 564.125 354.267 565.932 355.007 567.013C355.968 568.415 355.243 569.24 356.526 567.705C357.904 566.056 358.316 561.658 358.914 559.638C359.823 556.569 360.731 553.502 361.639 550.434C357.358 550.398 354.763 553.923 350.966 555.17ZM261.004 403.43C255.74 407.028 250.411 410.597 245.831 415.069C249.86 414.818 255.47 417.59 259.265 416.288C261.017 416.662 261.596 415.997 261.004 414.291V410.747V403.43ZM339.056 428.882V449.889C343.971 445.701 349.144 441.811 353.873 437.407C348.934 434.565 343.996 431.724 339.056 428.882ZM514.757 483.313C513.206 492.665 513.12 502.289 512.695 511.753C512.62 513.433 511.973 515.962 513.092 517.433C514.215 518.908 517.414 519.725 519.04 520.513C523.615 522.731 528.159 525.012 532.721 527.257C526.733 512.609 520.745 497.961 514.757 483.313ZM630.908 425.8C642.194 420.252 653.481 414.704 664.768 409.155C653.702 404.47 642.635 399.786 631.57 395.101C631.349 405.334 631.128 415.568 630.908 425.8ZM514.733 451.921C516.796 452.069 517.122 444.212 517.463 442.134C518.113 438.19 518.779 434.249 519.462 430.31C520.829 422.436 522.265 414.574 523.777 406.727C526.801 391.035 530.136 375.402 533.832 359.855C529.86 359.139 526.211 358.624 522.332 357.468C519.199 356.534 515.468 357.042 512.671 355.1C512.308 362.385 514.127 370.13 514.8 377.415C515.58 385.844 515.999 394.229 515.93 402.696C515.794 419.105 515.171 435.518 514.733 451.921ZM254.951 674.24C256.907 673.719 254.244 646.906 254.125 643.039C253.785 631.844 253.719 620.641 253.919 609.443C243.381 616.051 232.598 622.137 221.466 627.626C224.327 631.337 227.008 635.339 230.174 638.793C233.436 642.35 237.178 645.265 240.201 649.096C246.287 656.811 250.456 665.569 254.951 674.24ZM508.538 515.622C509.028 507.557 509.482 499.509 510.296 491.468C510.643 488.046 513.95 469.863 508.655 470.29C505.643 470.533 500.36 474.941 497.598 476.486C493.95 478.526 490.297 480.56 486.631 482.569C479.397 486.533 472.115 490.409 464.855 494.326C479.416 501.425 493.977 508.524 508.538 515.622ZM477.1 347.923C471.069 347.473 465.239 347.025 459.29 345.902C456.082 345.296 452.874 345.38 449.649 344.971C447.339 344.678 442.824 342.781 440.672 343.402C437.968 344.182 436.986 357.733 436.614 361.134C436.015 366.612 435.611 373.258 438.058 378.404C442.774 388.324 455.481 380.581 461.663 376.42C466.962 372.852 472.965 369.239 477.665 364.908C481.828 361.071 478.091 352.881 477.1 347.923ZM508.377 455.798C512.921 453.96 512.849 451.652 513.047 446.898C513.287 441.122 513.427 435.339 513.592 429.56C513.886 419.262 514.164 408.959 514.072 398.655C513.983 388.59 513.49 378.541 512.338 368.538C511.931 365.001 512.336 358.96 510.472 355.943C508.771 353.191 503.491 353.162 500.61 353.332C497.362 353.523 494.731 356.608 492.334 358.558C489.679 360.719 484.224 363.761 483.789 366.983C483.301 370.581 485.278 375.715 486.044 379.205C488.845 391.942 492.253 404.554 495.843 417.088C499.567 430.092 503.341 443.227 508.377 455.798ZM392.929 425.31C393.222 422.448 394.287 420.058 392.847 417.332C391.61 414.988 389.596 412.633 388.083 410.414C383.753 404.058 378.897 397.97 374.18 391.898C369.86 386.337 365.434 380.835 360.906 375.442C358.384 372.439 355.784 369.501 353.2 366.551C351.307 364.392 349.513 361.358 346.836 360.228C344.863 372.625 343.233 385.076 341.961 397.565C341.347 403.602 340.817 409.648 340.372 415.7C340.246 417.408 338.921 423.177 339.768 424.768C340.659 426.439 346.104 428.675 347.771 429.699C352.431 432.563 356.052 436.878 360.484 432.17C363.535 428.928 365.992 424.358 369.402 421.529C371.179 420.055 372.852 420.124 374.845 419.249C377.162 418.233 377.235 417.254 380.004 418.637C384.669 420.966 387.503 424.408 392.929 425.31ZM159.38 489.095C159.38 497.678 158.793 504.734 164.611 511.682C169.695 517.754 174.978 519.159 182.129 521.555C186.34 522.965 186.634 521.665 190.046 519.283C193.289 517.021 196.82 515.206 200.018 512.872C206.911 507.842 213.799 502.654 220.498 497.363C222.75 495.584 222.418 496.191 222.076 494.056C221.763 492.111 220.367 489.635 219.604 487.785C218.224 484.438 216.598 481.199 214.971 477.966C213.124 474.298 211.515 470.314 209.221 466.894C208.269 465.475 207.139 464.191 206.028 462.897C203.689 460.172 203.772 460.273 200.975 462.5C195.07 467.203 189.576 472.294 182.93 475.971C175.067 480.323 167.223 484.704 159.38 489.095ZM337.429 422.61C338.282 410.288 339.244 398.034 340.721 385.768C341.48 379.47 342.363 373.189 343.222 366.904C343.572 364.345 344.922 360.05 344.17 357.564C343.431 355.117 340.169 352.788 338.379 351.018C337.898 350.542 336.419 348.545 335.783 348.455C335.102 348.36 332.539 350.237 331.8 350.66C329.186 352.159 326.619 353.735 324.091 355.375C319.327 358.466 314.711 361.783 310.194 365.224C300.722 372.439 291.689 380.203 282.418 387.671C290.912 395.115 301.367 400.896 310.864 406.925C316.479 410.49 322.123 414.016 327.84 417.415C330.739 419.137 334.101 421.77 337.429 422.61ZM221.315 642.952C214.456 647.487 207.906 652.274 200.149 655.184C192.427 658.082 184.795 659.197 176.814 660.919C172.789 661.788 169.006 662.738 164.898 663.346C162.596 663.686 159.033 663.555 156.934 664.527C155.065 664.129 154.399 664.766 154.938 666.439C154.958 666.959 154.978 667.479 154.998 667.999C155.527 675.232 160.176 683.936 164.231 689.816C166.598 693.25 169.614 696.445 172.611 699.331C175.995 702.59 177.946 704.888 182.663 703.523C190.614 701.221 197.631 696.588 205.69 694.545C212.065 692.929 217.36 689.542 223.577 687.789C231.244 685.627 238.831 683.163 246.604 681.357C243.132 674.655 240.027 667.677 235.582 661.538C231.023 655.238 225.996 649.184 221.315 642.952ZM263.382 417.434C277.726 420.289 293.273 422.932 306.111 430.337C311.121 433.227 317.472 437.694 318.939 443.671C320.693 450.815 313.797 455.24 308.037 457.47C301.121 460.147 293.593 461.173 286.265 462.017C282.386 462.464 278.489 462.708 274.592 462.929C271.438 463.109 266.089 462.416 263.206 463.666C261.4 463.306 260.774 464.038 261.328 465.863C261.294 466.518 261.261 467.174 261.228 467.829L260.929 473.719C260.73 477.641 260.531 481.564 260.331 485.486C259.898 494.03 259.464 502.575 259.031 511.119C266.544 506.464 272.599 499.799 279.942 494.833C283.433 492.472 286.899 490.106 290.376 487.753C291.834 486.767 292.725 485.384 294.16 484.465C296.063 483.246 297.75 482.513 299.535 480.916C306.825 474.396 314.932 468.76 322.664 462.775C326.176 460.055 330.021 457.555 333.363 454.638C336.863 451.582 336.379 449.066 336.293 444.673C336.203 440.022 337.91 434.247 337.118 429.762C337.783 428.24 337.272 427.293 335.587 426.921C334.461 426.201 333.336 425.481 332.21 424.761C329.965 423.325 327.72 421.889 325.475 420.454C316.544 414.743 307.614 409.031 298.683 403.32C294.222 400.467 289.761 397.614 285.299 394.761C284.053 393.965 279.989 390.365 278.591 390.471C277.165 390.579 274.691 393.363 273.622 394.249C271.982 395.607 270.39 397.036 268.618 398.225C267.735 398.837 266.813 399.383 265.853 399.864C264.318 400.012 263.785 400.855 264.252 402.392C262.904 406.716 263.645 412.892 263.382 417.434ZM462.294 621.28C459.046 606.095 454.857 588.114 442.188 577.785C429.339 567.309 410.554 571.357 400.503 583.659C395.469 589.821 392.348 597.106 390.03 604.655C387.65 612.403 384.143 622.498 384.785 630.692C385.066 634.284 388.144 638.145 389.903 641.279C391.718 644.516 392.923 649.157 397.201 648.036C403.834 646.297 410.58 642.305 416.787 639.448C423.065 636.557 429.675 634.179 436.185 631.387C440.507 629.534 444.994 628.124 449.305 626.244C453.393 624.463 458.787 624.033 462.294 621.28ZM654.225 530.837C663.285 534.08 667.994 528.889 674.369 523.045C680.408 517.509 686.951 512.185 692.512 506.168C698.248 499.964 702.782 492.632 707.192 485.466C711.65 478.224 717.676 470.402 720.421 462.336C721.817 458.233 722.413 453.687 723.293 449.446C723.505 448.425 724.926 444.626 724.475 443.767C723.853 442.586 719.897 442.461 718.811 442.289C710.166 440.922 701.005 440.854 692.334 442.076C675.557 444.44 661.526 453.849 656.223 470.301C650.007 489.587 652.994 511.023 654.225 530.837ZM595.482 363.555C595.342 366.894 603.346 367.822 605.421 368.601C610.215 370.399 614.982 372.298 619.637 374.426C629.224 378.808 639.447 381.663 648.627 386.961C668.416 398.382 689.899 406.433 709.891 417.357C713.006 419.06 719.093 423.161 722.651 422.814C724.542 422.63 723.133 424.152 724.36 421.146C724.801 420.064 724.948 418.657 725.195 417.498C725.936 414.025 726.509 410.52 727.341 407.066C728.71 401.381 730.108 396.107 730.685 390.264C730.93 387.788 731.198 385.315 731.227 382.825C731.257 380.301 731.838 373.977 730.699 371.792C729.943 370.343 729.792 370.84 727.904 370.431C726.822 370.197 725.687 369.71 724.644 369.385C722.195 368.623 719.744 367.891 717.176 367.667C714.639 367.445 713.02 366.673 710.641 366.225C708.145 365.755 705.581 366.325 703.038 365.669C700.293 364.96 698.983 364.313 696.115 364.584C693.334 364.846 692.534 364.23 689.811 363.472C687.538 362.84 684.83 363.282 682.461 363.09C679.594 362.856 676.736 362.498 673.867 362.271C660.967 361.25 647.914 362.764 634.984 362.644C627.953 362.579 621.073 363.617 614.052 363.296C607.916 363.016 601.573 363.082 595.482 363.555ZM629.041 431.544C622.766 433.934 616.947 437.816 611.129 441.159C604.42 445.014 597.999 449.11 591.79 453.733C581.351 461.507 569.169 470.828 566.421 484.393C563.602 498.315 575.692 509.722 587.027 515.418C599.954 521.913 614.993 525.272 629.153 527.753C627.639 495.704 627.995 463.602 629.041 431.544ZM441.309 506.996C437.502 508.048 434.279 510.301 430.747 511.968C427.584 513.461 424.523 514.587 421.568 516.509C416.753 519.642 411.171 522.324 406.137 524.747C393.681 530.74 381.588 538.183 369.256 544.825C365.988 546.586 364.917 547.698 363.81 551.322C362.608 555.258 361.475 559.221 360.317 563.171C359.237 566.855 357.513 570.794 357.967 574.683C358.363 578.066 360.113 581.257 361.432 584.343C364.754 592.109 368.355 599.751 372.076 607.332C375.415 614.138 378.462 621.359 382.748 627.615C386.079 610.241 389.068 590.774 401.981 577.535C414.884 564.306 435.469 564.119 447.903 577.775C453.81 584.262 457.405 592.432 460.231 600.641C461.715 604.954 462.712 609.349 463.667 613.803C464.687 618.561 464.436 621.086 469.686 619.644C473.855 618.499 478.275 617.585 482.362 616.279C484.482 615.602 486.55 614.841 486.646 613.166C486.768 611.051 483.92 606.72 483.079 604.73C478.736 594.459 474.392 584.187 470.048 573.916C465.331 562.763 460.613 551.61 455.894 540.458C453.54 534.893 451.185 529.329 448.83 523.765C446.682 518.693 444.893 511.161 441.309 506.996ZM629.394 420.263C629.464 415.192 629.548 410.121 629.614 405.049C629.654 402.027 631.001 396.183 628.369 394.024C626.737 392.686 621.896 391.66 619.832 390.744C615.759 388.938 611.349 388.132 607.252 386.338C591.206 379.309 574.507 373.455 557.986 367.79C554.424 366.568 550.783 365.568 547.197 364.365C545.261 363.716 538.09 359.902 536.299 360.9C534.73 361.773 533.547 372.173 533.045 374.332C531.856 379.444 530.719 384.569 529.627 389.703C525.386 409.635 521.829 429.707 518.521 449.813C527.309 446.476 535.732 440.694 544.035 436.224C552.66 431.581 561.255 426.949 569.939 422.413C572.39 421.132 581.013 415.246 583.031 417.556C586.268 421.263 578.555 425.611 576.53 427.199C568.698 433.342 560.424 438.697 552.048 444.055C543.369 449.609 534.337 454.515 525.613 459.967C522.464 461.935 517.437 464.331 516.199 467.655C514.607 471.931 515.756 477.128 517.206 481.213C520.766 491.252 524.665 501.167 528.788 510.987C530.663 515.452 532.586 519.897 534.545 524.325C536.878 529.599 539.939 530.714 545.022 533.141C566.676 543.481 589.168 553.294 609.967 565.259C606.486 569.271 598.002 562.683 594.567 561.015C588.205 557.925 581.837 554.845 575.48 551.746C563.637 545.973 551.854 540.085 539.944 534.451C547.577 551.812 556.585 568.539 566.573 584.654C564.051 585.508 564.666 585.553 563.083 584.036C561.75 582.759 560.855 580.257 559.952 578.653C558.085 575.34 556.243 572.014 554.362 568.709C550.46 561.85 546.416 555.095 542.853 548.049C540.173 542.751 538.097 533.489 532.589 530.818C525.726 527.488 518.772 524.247 511.909 520.87C511.909 547.265 513.806 573.074 516.59 599.306C516.731 600.629 517.999 604.533 515.442 604.151C514.289 603.978 513.9 596.74 513.698 595.229C512.768 588.3 511.979 581.354 511.334 574.394C510.049 560.505 509.35 546.56 509.26 532.612C507.613 546.173 505.966 559.734 504.319 573.295L501.978 592.572C501.568 595.947 501.158 599.322 500.748 602.697C500.56 604.248 500.679 606.275 500.134 607.754C499.277 610.081 499.565 609.903 496.878 610.964C499.447 593.305 501.82 575.616 503.919 557.895C504.944 549.248 505.904 540.594 506.789 531.932C507.027 529.603 507.26 527.272 507.488 524.942C507.603 523.754 508.628 519.934 508.059 518.947C507.496 517.969 503.763 516.949 502.688 516.45C500.335 515.358 497.982 514.267 495.631 513.169C487.999 509.602 480.373 506.006 472.825 502.265C469.523 500.628 466.06 498.099 462.469 497.226C458.894 496.357 456.294 498.845 453.237 500.427C450.858 501.658 445.253 503.297 443.664 505.388C442.185 507.334 446.778 515.122 447.985 517.993C451.388 526.093 454.792 534.194 458.196 542.294C465.097 558.718 471.999 575.142 478.901 591.567C480.588 595.581 482.275 599.596 483.962 603.611C485.043 606.184 486.848 613.516 489.471 613.803C490.632 613.93 492.538 612.667 493.66 612.304C495.334 611.763 496.88 611.771 498.56 611.486C501.638 610.964 504.834 609.376 507.857 608.262C515.626 605.398 523.68 603.549 531.512 600.874C539.38 598.187 547.12 595.168 554.957 592.48C562.075 590.04 569.257 587.259 576.095 584.081C583.316 580.724 590.722 577.764 597.758 574.042C610.574 567.263 623.251 560.932 634.575 552.618C637.237 550.663 640.073 548.7 642.707 546.607C645.016 544.77 649.422 542.502 650.994 540.087C651.593 539.166 652.108 537.36 651.408 536.267C650.657 535.093 647.331 535.2 645.777 534.991C640.876 534.333 635.976 533.674 631.076 533.016C631.452 536.239 631.832 539.459 632.105 542.694C632.296 544.977 633.646 551.011 631.826 552.8C629.324 550.422 630.128 543.311 629.904 540.143C629.784 538.45 630.215 535.136 629.457 533.634C628.626 531.988 626.33 532.01 624.249 531.56C615.425 529.651 606.681 528.049 598.142 525.024C583.717 519.915 566.474 511.288 563.252 494.648C559.893 477.301 574.653 462.271 587.08 452.596C594.521 446.804 602.437 441.789 610.624 437.133C614.451 434.958 618.275 432.782 622.126 430.653C623.527 429.879 628.126 428.284 628.865 426.93C629.621 425.545 629.234 421.841 629.394 420.263ZM320.775 686.668C320.075 687.01 319.374 687.352 318.675 687.694C326.46 665.509 334.173 643.424 340.682 620.822C343.824 609.913 347.007 599.015 350.256 588.137C351.659 583.445 355.104 576.983 354.147 572.122C353.111 566.861 350.627 561.265 348.705 556.262C336.402 563.996 323.841 571.333 311.333 578.716C300.12 585.337 288.717 591.225 277.425 597.776C271.639 601.132 265.67 603.399 259.631 606.141C254.724 608.37 256.629 615.183 256.7 619.734C256.948 635.802 256.936 651.927 257.911 667.972C258.266 673.817 257.808 680.528 261.529 685.393C266.288 691.613 270.702 697.954 275.042 704.502C276.668 706.955 283.499 720.236 286.046 719.945C287.709 719.756 289.24 714.378 290.072 713.103C291.865 710.354 294.486 707.989 296.872 705.776C307.176 696.216 318.61 689.482 330.493 682.495C342.566 675.397 354.921 668.79 367.222 662.059C370.001 660.538 372.994 659.441 375.755 657.887C376.846 657.273 379.009 656.298 379.696 655.201C380.723 653.559 380.375 649.01 380.589 647.047C381.027 643.037 381.814 638.871 381.856 634.831C381.897 630.841 379.498 627.412 377.759 623.933C370.125 608.655 362.708 593.34 356.066 577.599C350.829 595.877 345.331 614.069 340.194 632.374C337.512 641.932 334.279 651.334 331.131 660.745C329.524 665.552 327.907 670.355 326.302 675.163C325.052 678.907 324.403 684.389 320.775 686.668ZM430.416 342.201C426.369 342.246 422.701 341.651 418.743 340.806C417.291 340.497 416.015 340.366 414.543 340.236C412.874 340.089 411.358 339.185 409.895 339.008C408.789 338.875 406.858 339.339 405.802 339.693C403.354 340.513 403.432 340.099 403.33 342.941C403.17 347.332 403.05 351.724 402.809 356.111C401.86 373.38 400.026 390.481 397.513 407.583C397.004 411.04 395.58 415.574 396.363 419.007C397.069 422.102 399.743 425.408 401.509 428.004C405.142 433.343 413.698 435.981 419.717 437.495C426.064 439.092 432.654 439.68 438.684 441.104C440.355 441.499 442.273 440.803 444.054 441.199C445.701 441.565 446.98 442.469 448.502 443.123C452.231 444.724 456.397 445.019 460.248 446.255C467.884 448.706 476.06 448.559 483.703 450.913C485.657 451.514 487.345 453.03 489.225 453.549C490.944 454.023 492.714 453.465 494.513 453.73C498.325 454.291 501.879 455.594 502.758 459.686C505.089 457.841 505.413 458.326 505.01 455.472C504.752 453.642 503.733 451.414 503.175 449.65C501.753 445.152 500.323 440.657 498.902 436.159C496.091 427.258 493.297 418.35 490.706 409.383C488.387 401.362 486.279 393.28 484.437 385.136C483.5 380.995 482.717 376.836 481.914 372.673C481.68 371.465 481.912 369.545 480.698 368.741C479.597 368.012 477.027 370.628 475.864 371.471C467.741 377.355 449.11 394.758 438.954 384.492C433.485 378.964 433.805 369.245 434.399 362.103C434.763 357.713 435.534 353.38 436.396 349.064C436.611 347.987 437.928 344.527 437.446 343.76C436.925 342.935 431.503 342.443 430.416 342.201ZM715.835 438.256C717.998 438.498 720.159 438.741 722.321 438.984C722.123 437.237 722.301 434.61 721.64 432.983C720.725 430.734 718.486 430.483 716.023 429.551C712.127 428.078 708.154 426.797 704.301 425.211C695.939 421.77 687.616 418.28 679.249 414.839C675.582 413.33 671.273 410.861 667.291 412.093C662.997 413.423 658.759 416.131 654.745 418.114C650.2 420.36 645.657 422.611 641.115 424.862C638.985 425.918 636.854 426.973 634.724 428.029C631.377 429.687 630.932 429.855 630.668 433.642C629.323 453.014 629.423 473.138 630.009 492.536C630.309 502.435 629.973 512.388 630.683 522.27C630.738 523.03 630.681 527.319 631.157 527.904C631.827 528.728 636.544 529.006 637.671 529.213C642.065 530.016 646.49 530.283 650.93 530.68C649.884 508.148 646.042 481.511 657.613 460.901C669.236 440.195 694.08 435.71 715.835 438.256ZM513.779 216.586C515.082 213.618 517.326 211.112 519.244 208.508C520.281 207.1 522.075 205.417 522.739 203.77C523.684 201.426 523.679 201.928 522.267 199.875C520.932 197.935 520.959 197.789 518.895 197.442C517.157 197.15 515.306 197.646 513.531 197.328C511.736 197.006 506.803 195.494 507.934 192.638C507.885 192.763 510.739 191.356 510.961 191.112C511.678 190.331 511.905 188.666 512.259 187.722C513.399 184.696 513.799 182.737 512.529 179.515C510.631 174.704 503.129 173.28 498.459 174.899C496.124 175.707 494.793 177.421 493.744 179.575C493.077 180.943 492.922 182.92 492.06 184.111C490.76 185.904 490.68 185.705 487.985 185.388C484.554 184.985 481.74 183.667 478.489 182.748C474.948 181.746 472.645 183.784 469.551 185.427C463.965 188.395 458.57 189.425 452.313 189.896C445.345 190.421 438.887 188.741 431.988 188.308C433.778 196.553 438.407 203.247 442.107 210.713C442.757 212.026 443.808 213.368 443.833 214.887C443.859 216.318 441.787 218.265 442.02 219.449C442.519 221.975 448.078 223.997 450.184 224.708C456.141 226.717 462.924 230.65 469.48 229.07C473.075 228.204 475.009 222.528 478.392 222.111C482.93 221.549 479.535 227.393 478.692 229.403C485.133 230.382 493.297 229.552 499.462 227.368C502.552 226.274 505.17 224.641 507.99 223.022C511.502 221.006 512.232 220.452 513.779 216.586ZM401.064 339.296C389.581 339.487 377.93 337.834 366.421 339.353C363.755 339.704 361.124 340.27 358.504 340.872C356.621 341.305 350.64 341.671 349.384 343.071C348.24 344.348 348.232 350.227 347.996 351.884C347.471 355.574 347.611 356.848 349.964 359.701C357.706 369.089 365.769 378.197 373.398 387.689C380.726 396.807 386.741 406.995 394.148 415.984C398.104 404.469 398.341 390.65 399.427 378.576C400.006 372.138 400.533 365.695 401.028 359.251C401.499 353.113 403.101 345.148 401.064 339.296ZM252.435 460.653C253.763 460.653 255.881 461.069 257.172 460.653C258.947 461.218 259.54 460.552 258.953 458.656C258.981 457.993 259.009 457.329 259.038 456.665C259.223 452.388 259.427 448.112 259.625 443.835C259.807 439.925 259.984 436.014 260.138 432.103C260.244 429.433 261.593 422.814 260.514 420.403C259.789 418.782 258.072 419.15 255.983 418.913C253.996 418.688 252.003 418.48 250.027 418.172C247.519 417.781 244.739 416.883 242.187 417.445C239.623 418.01 237.759 420.377 235.747 421.883C232.563 424.264 229.31 426.557 226.099 428.901C220.263 433.163 214.486 437.503 208.699 441.83C206.309 443.616 205.85 442.996 207.015 445.564C207.736 447.15 209.375 448.945 210.373 450.378C212.36 453.232 214.339 457.558 216.888 459.874C220.597 463.244 230.888 461.104 235.815 461.08C241.433 461.052 246.849 461.139 252.435 460.653ZM266.977 460.374C271.849 459.897 276.771 460.103 281.613 459.448C286.877 458.735 292.103 457.68 297.357 456.889C302.595 456.102 318.53 452.917 316.957 445.099C315.295 436.835 303.096 431.885 296.346 429.107C285.804 424.768 274.798 422.445 263.709 419.992C262.318 427.4 262.518 435.353 262.264 442.86C262.126 446.937 262.005 451.019 262.007 455.1C262.007 456.082 261.67 458.12 262.071 459.033C263.013 461.182 264.109 460.374 266.977 460.374ZM250.955 463.924H219.859C224.461 473.45 228.811 483.154 233.772 492.5C238.713 501.81 245.075 510.582 250.681 519.518C252.101 517.973 254.366 516.297 255.331 514.458C256.4 512.424 256.37 509.431 256.545 507.076C256.999 500.964 257.206 494.798 257.36 488.672C257.495 483.307 257.731 477.978 258.143 472.626C258.233 471.452 259.528 465.355 258.787 464.353C258.126 463.461 252.315 463.933 250.955 463.924ZM379.02 276.886C384.266 276.885 389.518 276.819 394.763 276.907C399.523 276.988 405.725 276.159 410.085 278.61C418.968 283.602 401.211 296.423 397.61 299.65C403.432 301.76 412.519 297.572 418.219 295.653C425.267 293.281 432.454 291.688 439.643 289.83C441.439 289.366 449.149 288.457 450.123 287.081C451.089 285.716 448.925 277.481 448.708 275.744C448.505 274.111 448.676 271.565 447.996 270.029C448.413 268.184 447.765 267.537 446.052 268.091C445.46 268.089 444.87 268.086 444.278 268.084C439.904 268.119 435.526 268.322 431.155 268.467C416.131 268.967 401.472 269.634 386.576 271.979C379.651 273.069 372.665 274.41 365.776 275.748C359.977 276.874 360.953 277.819 366.369 277.833C370.605 277.844 374.805 277.215 379.02 276.886ZM809.999 166.406C810.891 165.381 811.785 164.355 812.677 163.329C810.502 162.708 808.327 162.086 806.152 161.465C803.839 160.805 802.594 160.956 803.623 158.372C804.911 155.135 810.795 154.764 813.623 154.642C823.36 154.221 833.588 157.319 842.838 160.048C847.351 161.38 850.889 163.441 854.708 166.182C856.375 167.379 858.3 168.503 859.759 169.941C861.275 171.435 861.906 173.349 863.388 174.847C865.819 177.303 868.93 178.526 870.122 182.071C871.49 186.14 869.857 190.798 867.832 194.346C865.778 197.947 862.727 200.67 860.249 203.942C858.282 206.538 854.175 213.631 860.593 212.809C863.987 212.374 868.389 206.586 870.832 204.28C874.333 200.973 877.777 197.59 881.485 194.51C884.773 191.779 888.561 188.979 892.958 188.499C897.592 187.993 899.907 190.959 902.166 194.566C904.296 197.968 904.638 201.289 906.136 204.771C906.859 206.45 907.779 207.386 908.204 209.216C908.857 212.031 908.925 215.102 909.258 217.972C909.782 222.479 910.275 226.023 909.402 230.439C908.584 234.572 908.361 238.962 907.672 243.167C906.892 247.929 906.243 252.713 905.474 257.477C904.823 261.513 902.346 267.261 904.776 271.014C910.614 280.033 917.618 266.756 919.462 261.796C922.704 253.08 924.354 243.552 927.215 234.657C928.747 229.9 930.084 225.098 930.962 220.173C931.689 216.1 931.331 211.138 933.563 207.51C935.298 204.692 938.384 202.552 941.771 203.412C946.009 204.489 947.637 210.615 948.884 214.339C952.175 224.161 950.964 233.007 949.624 243.024C949.004 247.662 948.412 252.307 947.347 256.868C946.628 259.945 943.651 266.173 948.077 267.846C954.352 270.22 961.003 252.218 962.791 248.153C967.473 237.506 969.266 226.947 971.196 215.539C971.639 212.916 971.978 210.237 972.641 207.659C973.218 205.415 974.942 203.147 975.097 200.903C975.252 198.657 973.765 197.09 975.289 194.885C976.557 193.05 978.848 192.939 980.918 192.923C985.78 192.885 990.431 195.02 994.954 196.569C999.164 198.01 1005.39 201.172 1009.93 200.154C995.689 185.697 981.486 171.404 964.503 160.145C956.617 154.916 948.725 149.891 940.201 145.627C931.567 141.308 921.673 138.391 912.426 135.778C907.397 134.356 902.396 132.745 897.43 131.114C893.009 129.662 888.559 129.387 884.23 127.74C874.825 124.163 864.316 122.777 854.578 120.241C850.278 119.122 845.931 118.162 841.621 117.125C837.091 116.035 830.727 114.142 826.112 114.326C822.17 114.483 820.84 119 818.944 122.142C816.191 126.703 813.844 131.442 811.679 136.307C807.245 146.275 802.564 156.573 799.392 166.987C797.651 172.705 795.931 178.429 794.22 184.156C792.74 189.114 789.037 196.266 790.021 201.354C797.314 190.115 804.105 178.443 809.999 166.406ZM470.466 267.89C466.597 268.066 462.727 268.241 458.858 268.417C462.716 281.097 462.178 294.599 462.178 307.742C480.207 305.617 498.381 305.255 516.517 305.402C513.185 298.974 514.477 290.635 515.426 283.752C515.982 279.723 516.292 275.842 516.211 271.777C516.135 267.964 517.234 264.758 513.194 263.579C509.989 262.644 507.963 264.202 504.91 264.913C501.253 265.764 497.27 265.867 493.547 266.33C485.798 267.293 478.326 267.858 470.466 267.89ZM366.577 292.584C378.196 289.361 390.543 290.549 402.22 288.099C399.564 285.675 394.56 287.111 391.033 287.313C387.023 287.541 383.016 287.708 379.006 287.903C375.095 288.094 364.247 287.798 362.836 292.774C364.082 292.711 365.33 292.647 366.577 292.584ZM791.717 112.904C776.513 114.238 760.59 114.031 745.496 116.684C728.209 119.722 710.189 121.628 693.428 126.982C676.987 132.235 660.219 135.912 644.011 142.08C628.255 148.076 613.079 154.455 598.241 162.475C590.979 166.4 583.912 170.561 576.989 175.069C570.23 179.47 562.824 183.078 556.275 187.743C550.445 191.896 545.416 195.705 540.332 200.793C534.898 206.233 529.611 211.82 524.172 217.251C519.632 221.782 522.506 232.86 522.794 238.89C523.193 247.25 523.882 255.492 524.907 263.797C525.882 271.711 526.886 280.217 525.597 288.114C525.056 291.434 523.188 297.169 524.08 300.483C524.793 303.137 529.527 305.083 531.942 305.948C534.896 307.006 537.913 306.56 540.944 307.906C544.329 309.411 547.183 311.287 550.778 312.078C555.209 313.053 560.191 313.873 564.745 313.903C568.956 313.93 573.181 315.294 577.38 316.134C584.21 317.502 590.877 317.928 590.452 326.165C589.961 335.669 586.19 343.824 583.944 352.846C586.981 352.846 589.098 353.04 591.878 351.963C595.124 350.707 598.587 350.373 601.998 349.831C609.534 348.632 616.881 348.248 624.467 347.483C638.363 346.081 652.5 346.249 666.407 346.397C673.448 346.471 681.086 347.015 688.03 348.111C695.154 349.236 702.532 349.939 709.436 352.096C715.26 353.916 721.274 355.156 727.215 356.764C729.893 357.488 733.1 358.076 735.63 358.886C739.296 360.061 741.255 362.566 745.488 362.51C744.297 354.669 741.499 347.396 739.811 339.621C738.049 331.501 734.533 324.317 730.653 316.657C728.922 313.24 727.641 309.614 725.972 306.168C724.116 302.335 721.507 299.16 719.266 295.576C714.681 288.245 709.787 281.193 705.283 273.81C701.351 267.364 696.859 261.185 692.554 254.963C687.822 248.122 681.246 242.959 675.875 236.683C673.608 234.032 671.45 231.569 668.91 229.136C666.571 226.896 663.253 221.938 659.672 221.706C657.614 221.572 654.048 222.73 652.084 223.351C648.45 224.502 644.595 225.252 640.842 226.265C636.735 227.374 632.699 228.817 628.585 229.871C626.939 230.292 624.984 230.092 623.423 230.569C621.791 231.069 620.488 232.17 618.703 232.675C609.897 235.173 601.144 238.009 592.273 240.283C583.14 242.625 573.867 244.619 565.016 247.936C563.328 248.569 561.45 250.065 560.153 249.082C559.186 248.348 558.562 246.275 558.817 245.065C559.666 241.037 566.109 239.582 569.211 237.965C577.524 233.631 585.783 230.575 594.717 227.632C599.118 226.184 603.503 224.638 607.965 223.387C611.695 222.342 615.577 220.574 619.391 220.039C622.783 219.563 625.192 218.227 628.559 217.044C633.519 215.301 638.62 213.87 643.661 212.381C652.276 209.835 661.408 208.765 670.223 207.058C690.645 203.103 711.848 201.123 732.687 201.368C743.193 201.492 754.183 201.185 764.566 202.913C767.07 203.329 772.333 203.249 774.059 205.496C774.986 206.702 774.484 208.497 774.722 209.804C775.124 212.01 776.327 213.038 777.37 215.048C779.587 204.172 782.134 193.527 784.996 182.81C787.584 173.111 789.979 163.236 793.437 153.673C797.096 143.555 801.532 132.827 807.001 123.567C808.127 121.661 810.934 118.633 811.175 116.501C811.425 114.301 808.342 112.597 806.224 112.352C801.472 111.803 796.384 112.743 791.717 112.904ZM893.854 268.309C895.401 253.222 899.923 237.441 897.397 222.294C896.328 215.882 895.493 209.761 892.286 203.973C890.664 201.046 890.014 198.896 886.918 200.622C883.784 202.369 880.899 206.684 878.301 209.185C873.526 213.782 868.525 218.516 862.807 221.93C858.303 224.618 849.357 227.166 845.971 221.351C842.745 215.809 847.048 208.075 850.137 203.503C853.672 198.272 860.368 193.427 856.61 186.973C854.993 184.195 852.666 183.467 850.22 181.644C848.103 180.066 846.329 178.022 844.211 176.416C838.075 171.761 831.345 169.767 824.26 167.107C820.989 165.878 820.559 164.722 818.669 167.531C816.617 170.582 815.493 174.858 814.009 178.232C811.037 184.991 807.867 191.395 804.035 197.697C800.168 204.057 796.741 210.701 793.086 217.187C791.707 219.634 790.41 222.121 788.78 224.418C787.892 225.668 786.793 226.782 786.072 228.15C785.005 230.173 785.48 232.017 784.816 234.031C781.95 242.721 777.77 230.59 776.971 227.754C776.063 224.528 773.872 222.013 772.452 219.004C771.279 216.519 770.479 212.826 767.647 211.656C765.327 210.698 762.337 212.013 759.97 212.141C755.62 212.377 751.238 212.025 746.869 212.297C742.784 212.551 738.708 212.943 734.624 213.193C730.536 213.444 726.453 212.753 722.419 213.183C715.18 213.955 707.779 213.831 700.556 214.901C692.08 216.155 683.691 217.493 675.191 218.537C677.166 222.272 681.26 223.892 684.497 226.557C687.39 228.939 689.681 231.688 692.595 233.954C695.552 236.254 697.309 239.656 699.756 242.42C702.154 245.127 704.374 247.397 706.475 250.426C716.614 265.052 727.072 279.138 735.435 294.946C739.668 302.947 743.71 311.507 746.602 320.091C749.704 329.298 751.226 339.172 753.069 348.692C753.987 353.437 754.468 357.442 753.462 362.214C753.198 363.35 752.923 364.484 752.638 365.615C751.756 366.969 752.082 367.847 753.618 368.25C754.516 369.559 755.742 370.05 755.82 371.84C755.88 373.2 755.123 374.776 753.952 375.543C751.691 377.023 751.691 375.024 749.36 375.467C748.486 375.94 747.612 376.412 746.739 376.884C746.278 376.182 745.803 375.488 745.316 374.804C743.83 373.391 742.648 373.52 740.706 373.176C741.693 384.543 740.119 394.692 737.617 405.78C736.413 411.112 734.35 416.331 733.31 421.672C732.149 427.639 734.687 430.357 738.613 434.337C737.617 434.857 735.871 435.422 735.049 436.199C733.741 437.438 734.075 437.59 734.076 439.529C734.078 443.079 733.397 446.578 732.839 450.069C731.807 456.534 730.864 463.224 728.638 469.414C724.595 480.657 718.06 492.333 711.402 502.236C707.676 507.778 703.941 514.074 699.271 518.856C694.584 523.654 689.938 528.496 685.262 533.309C676.059 542.783 666.002 549.328 654.977 556.421C650.611 559.231 646.012 562.309 642.257 565.807C638.441 569.361 633.366 571.849 628.805 574.431C626.77 575.583 625.322 577.238 623.125 578.183C621.061 579.07 619.619 579.36 617.888 580.524C613.593 583.412 608.954 585.881 604.225 588.059C598.457 590.715 592.781 593.805 586.857 596.072C584.158 597.105 581.619 598.231 579.005 599.439C576.176 600.746 573.124 601.604 570.222 602.997C567.77 604.174 565.287 604.858 562.791 605.82C560.753 606.606 559.153 607.878 557.074 608.7C552.757 610.405 548.828 611.323 544.634 613.333C539.061 616.004 532.457 617.25 526.587 619.172C520.033 621.319 513.234 623.455 506.508 624.977C503.646 625.625 501.208 626.472 498.444 627.453C496.643 628.092 494.578 628.442 492.583 629.049C487.07 630.73 481.56 632.35 476.018 633.779C465.19 636.572 454.128 639.925 443.627 643.716C438.121 645.704 432.536 648.096 427.254 650.627C421.283 653.487 414.849 655.138 408.856 657.97C397.279 663.439 385.741 669.069 374.298 674.811C368.289 677.827 362.364 680.934 356.497 684.214C354.368 685.404 352.04 685.895 349.925 687.062C347.159 688.589 344.889 690.83 342.056 692.343C331.136 698.175 319.991 703.669 309.961 711.048C304.712 714.91 299.072 718.865 294.536 723.567C293.039 725.118 290.445 727.52 290.174 729.771C289.775 733.101 290.149 730.037 291.302 732.091C292.899 732.285 293.26 732.899 292.389 733.931C291.987 734.415 291.472 734.662 290.845 734.672C288.828 735.08 285.055 732.943 283.434 732.049C280.625 730.501 279.134 728.544 277.33 725.945C273.412 720.307 269.589 714.618 265.554 709.059C261.925 704.06 258.373 698.556 254.244 693.965C251.444 690.853 251.234 692.212 248.12 693.967C245.803 695.272 243.112 695.829 240.711 697.058C231.562 701.745 221.505 705.206 212.121 708.472C209.984 709.216 208.845 710.396 206.967 711.423C204.575 712.732 201.545 713.372 198.987 714.302C191.94 716.864 184.928 719.524 177.931 722.22C172.529 724.303 167.338 725.944 163.109 729.787C161.426 731.317 159.389 732.413 157.651 733.96C155.627 735.759 152.89 738.687 150.342 739.705L148.79 740.917C147.74 740.187 146.689 739.458 145.636 738.731C144.592 738.008 143.547 737.288 142.505 736.563C139.888 734.744 137.29 732.899 134.689 731.057C128.79 726.876 122.853 722.736 117.366 718.016C107.619 709.635 97.5047 701.703 87.3127 693.853C76.6157 685.614 66.1867 676.992 55.1227 669.248C45.0947 662.229 34.1537 656.301 24.4307 648.893C19.5367 645.164 14.6547 641.411 9.65769 637.799C9.38569 637.603 5.31969 635.108 5.27889 634.831C5.20969 634.321 6.54769 632.99 6.94269 632.562C8.81269 630.529 10.8847 628.719 12.7477 626.664C21.4307 617.089 32.7677 617.423 44.7507 616.971C50.1847 616.766 56.0777 619.272 61.2387 620.978C67.5497 623.064 73.6377 626.126 79.7337 628.77C92.2967 634.219 105.263 638.875 117.953 643.922C122.943 645.906 127.914 646.874 132.987 648.238C138.134 649.623 143.436 648.303 148.941 648.402C151.798 648.453 154.499 648.62 157.376 648.458C159.084 648.362 161.052 648.038 162.739 648.067C164.106 648.091 165.525 648.655 166.783 648.512C172.29 647.888 178.107 647.013 183.787 646.297C189.426 645.586 195.245 645.233 200.81 644.12C203.612 643.56 206.377 642.768 209.073 641.818C211.413 640.993 215.667 640.056 217.587 638.385C219.305 636.89 218.554 636.87 217.596 634.431C217.217 633.467 216.825 632.005 216.263 631.076C214.744 628.566 213.276 627.777 214.16 624.636C215.717 619.1 221.024 615.566 225.567 612.839C235.801 606.699 245.161 598.823 255.937 593.614C278.141 582.882 298.377 568.941 320.031 557.155C343.833 544.2 366.349 528.998 390.482 516.59C412.946 505.041 435.307 493.424 457.957 482.238C469.017 476.778 481.526 471.781 491.561 464.622C486.001 463.932 480.425 463.041 474.846 462.547C472.258 462.318 469.639 462.53 467.066 462.119C464.188 461.659 461.467 460.495 458.595 460.011C453.656 459.177 449.215 457.484 444.272 456.86C438.972 456.19 433.781 454.632 428.456 454.196C417.317 453.283 407.264 449.175 397.499 443.998C395.082 442.716 393.096 443.449 390.78 442.577C389.504 442.098 388.149 440.182 386.716 439.153C382.769 436.319 379.381 432.973 375.63 429.877C367.744 447.575 352.259 459.612 337.482 471.484C329.997 477.496 321.873 482.593 314.311 488.492C308.449 493.066 303.125 497.16 296.867 500.797C290.858 504.287 285.213 509.001 279.484 513.194C275.601 516.036 271.05 518.181 266.921 520.649C263.547 522.665 256.96 525.672 256.04 529.329C255.287 532.317 256.756 535.873 252.196 534.499C248.113 533.27 245.153 528.737 242.775 525.544C236.625 517.282 230.888 508.74 225.178 500.174C222.111 506.16 216.821 510.471 211.931 514.909C208.96 517.606 205.876 520.108 202.667 522.515C201.111 523.683 199.537 524.828 197.978 525.993C197.364 526.453 195.972 527.16 195.574 527.808C194.644 529.324 195.209 528.637 195.354 530.47C195.58 533.341 196.538 535.6 194.913 538.351C193.387 540.934 190.06 542.037 187.728 543.801C182.18 548 176.346 552.463 170.191 555.742C168.794 556.486 167.473 557.131 166.172 558.042C164 559.561 164.397 560.112 162.208 558.656C158.785 556.377 155.828 552.594 152.739 549.846C146.267 544.088 139.723 538.403 133.095 532.826C120.464 522.196 107.46 512.095 94.9857 501.275C83.1317 490.993 70.4237 482.142 58.1857 472.367C54.8287 469.686 51.5127 466.95 48.1997 464.214C45.2497 461.779 40.4627 459.095 38.2807 455.979C35.1117 451.453 47.5077 445.268 51.2477 444.347C57.6967 442.76 66.0357 443.668 72.4947 444.969C79.2747 446.334 86.1787 450.9 92.5097 453.744C99.6457 456.949 106.914 459.72 114.103 462.746C117.309 464.095 120.708 465.172 123.684 466.99C126.842 468.919 129.661 471.118 133.019 472.736C136.889 474.598 140.91 476.336 144.98 477.714C146.824 478.338 148.809 478.965 150.747 479.217C153.491 479.574 153.119 478.31 155.398 477.604C157.335 477.004 157.795 478.589 159.537 479.03C161.177 479.446 162.403 479.025 163.823 478.143C166.989 476.178 169.807 473.468 172.974 471.422C175.912 469.523 179.151 467.749 181.905 465.599C183.133 464.641 184.041 463.328 185.251 462.355C187.19 460.795 187.959 461.414 190.223 460.34C192.074 459.461 193.753 457.825 195.514 456.741C196.607 456.068 199.258 455.218 199.963 454.129C201.815 451.27 198.654 449.284 195.823 450.127C195.399 447.658 193.222 441.796 194.162 439.481C194.994 437.433 197.178 437.816 199.015 436.732C205.919 432.656 211.014 425.25 217.473 420.461C223.562 415.946 228.934 410.556 234.966 405.958C240.133 402.019 245.78 398.173 250.485 393.925C256.048 388.903 263.17 384.996 269.218 380.513C275.466 375.883 281.272 370.731 287.453 366.048C293.4 361.543 299.241 356.837 305.352 352.548C310.844 348.693 316.601 345.173 321.979 341.265C324.925 339.125 328.146 337.245 331.509 335.84C334.853 334.442 337.778 332.803 341.043 331.298C347.532 328.307 355.982 326.24 363.038 325.383C370.796 324.441 378.586 323.596 386.418 323.589C390.59 323.586 394.642 324.38 398.789 324.632C402.599 324.862 406.719 325.826 410.502 325.699C412.215 325.642 413.704 324.917 415.363 325.151C416.748 325.346 417.953 326.182 419.439 326.328C422.748 326.654 426.075 326.329 429.421 326.757C437.108 327.739 444.805 329.139 452.508 329.919C460.715 330.75 468.851 330.907 477.015 332.307C484.993 333.674 493.021 335.091 500.953 336.672C517.81 340.032 534.843 343.313 551.433 348.302C555.311 349.468 559.212 350.577 562.94 352.176C564.749 352.951 566.487 353.891 568.374 354.471C571.076 355.301 571.608 355.616 573 353.349C575.396 349.447 576.716 344.286 578.455 340.041C580.174 335.84 582.262 331.606 583.259 327.219C580.36 326.76 576.703 327.652 573.712 327.754C570.055 327.88 566.438 327.801 562.785 327.779C555.422 327.735 549.665 325.56 542.698 323.277C536.826 321.352 529.008 320.248 524.529 315.84C522.127 313.477 521.328 313.061 517.718 313.485C514.076 313.912 510.479 314.648 506.802 314.77C492.944 315.23 479.149 317.648 465.228 318.126C461.462 318.255 452.043 320.04 452.66 313.653C452.788 312.327 453.804 311.177 454.002 309.812C454.214 308.349 453.848 306.864 453.619 305.434C453.074 302.051 452.505 298.67 451.962 295.286C439.268 299.36 426.414 302.661 413.478 305.888C408.114 307.226 399.496 310.303 393.953 308.616C388.594 306.985 391.698 299.435 393.367 295.821C382.72 298.251 371.364 302.225 360.507 303.137C357.204 303.415 353.989 304.146 353.22 300.153C352.608 296.971 354.906 293.08 356.078 290.285C347.746 289.541 339.118 289.612 340.686 278.932C342.123 269.133 350.263 267.182 358.93 265.392C369.627 263.181 380.552 262.444 391.319 260.655C400.687 259.098 410.908 257.362 420.475 258.148C425.54 258.563 430.635 258.658 435.698 259.127C438.087 259.348 440.384 259.718 442.696 260.37C444.829 260.97 447.812 262.831 449.998 262.864C453.298 262.916 457.276 258.454 460.825 257.423C465.221 256.145 469.958 255.913 474.5 255.6C479.648 255.247 484.804 255.05 489.948 254.633C491.121 254.538 495.554 254.828 496.48 254.141C497.828 253.14 496.931 248.006 496.837 245.897C496.749 243.946 497.125 240.292 495.773 239.527C494.503 238.809 490.801 239.794 489.551 239.994C484.37 240.824 479.447 240.729 474.285 240.518C471.901 240.421 469.611 241.056 467.25 240.743C464.717 240.408 462.167 239.556 459.644 239.082C454.179 238.055 449.2 236.777 444.491 233.715C440.357 231.028 435.465 229.209 433.155 224.503C431.463 221.057 430.775 214.407 435.75 213.427C432.362 208.54 430.024 203.05 428.228 197.403C427.902 196.379 427.686 194.837 427.199 193.944C425.479 190.786 427.075 193.587 424.621 192.324C422.196 191.077 420.448 190.09 418.553 187.921C415.532 184.462 414.26 180.205 413.878 175.698C413.36 169.577 412.392 162.675 413.286 156.585C414.833 146.036 422.543 138.11 430.377 131.73C434.63 128.266 440.229 126.976 445.217 124.874C450.032 122.844 455.411 120.716 460.484 120.24C465.063 119.81 469.527 118.315 474.111 117.712C480.411 116.882 486.718 117.192 493.049 116.94C495.963 116.824 498.87 116.413 501.771 116.1C503.409 115.923 506.179 116.112 507.679 115.463C510.134 114.399 508.808 116.633 509.685 113.379C511.353 107.189 512.715 101.384 515.242 95.3692C517.596 89.7652 520.455 84.4072 524.234 79.6162C527.778 75.1222 532.374 71.8352 536.549 67.9962C539.643 65.1522 543.152 62.5832 546.681 60.2832C548.699 58.9682 550.947 58.2572 552.918 57.0962C555.366 55.6562 557.526 54.5642 560.28 53.6822C566.19 51.7902 572.055 49.7812 578.332 49.8802C585.099 49.9862 591.883 48.4112 598.471 50.4082C610.704 54.1172 616.698 67.3752 616.493 79.5502C620.677 78.5062 624.334 76.4962 628.766 76.3242C632.848 76.1662 637.698 76.5202 641.708 77.2782C649.49 78.7492 657.494 83.0752 662.134 89.6312C666.56 95.8842 667.222 104.186 664.502 111.28C663.2 114.676 661.135 117.697 658.935 120.566C657.323 122.67 653.725 124.999 653.555 127.818C683.676 118.713 713.92 112.295 745.079 108.141C760.874 106.036 776.695 107.09 792.506 105.887C799.26 105.373 806.6 106.092 813.582 106.119C816.53 106.131 818.824 105.721 820.961 103.813C823.125 101.883 824.854 99.5192 827.376 102.305C828.02 103.016 828.155 104.736 829.021 105.271C830.071 105.919 833.124 105.474 834.38 105.551C838.771 105.819 843.056 106.564 847.367 107.422C855.277 108.997 863.136 110.589 870.952 112.588C885.834 116.395 900.519 120.077 915.186 124.596C930.152 129.207 945.276 134.896 959.075 142.36C965.759 145.975 972.435 150.488 978.58 154.96C981.437 157.04 983.998 159.29 986.482 161.798C989.139 164.479 992.388 166.288 995.019 168.989C1000.74 174.864 1006.44 181.096 1011.63 187.461C1014.34 190.784 1016.83 194.289 1019.24 197.831C1020.94 200.316 1025.4 204.866 1024.37 208.076C1023.83 209.79 1021.91 210.989 1020.16 210.569C1019.57 210.429 1019.09 209.669 1018.59 209.597C1016.89 209.357 1018.43 208.761 1016.46 209.562C1012.53 211.155 1011.28 214.35 1006.29 213.623C997.813 212.386 989.838 208.382 982.127 204.891C979.925 213.311 979.613 222.04 977.685 230.561C975.805 238.874 972.67 246.802 968.885 254.427C965.565 261.117 961.302 268.247 955.425 273.028C950.941 276.676 939.874 281.208 936.58 273.441C935.181 270.142 937.262 265.016 937.851 261.621C938.642 257.065 939.514 252.496 939.99 247.894C940.376 244.155 940.571 240.394 940.931 236.651C941.242 233.431 942.102 226.518 940.291 223.674C939.2 221.96 939.105 223.642 938.47 225.353C937.7 227.428 937.06 229.486 936.497 231.623C935.299 236.164 934.219 240.736 933.086 245.293C931.062 253.435 928.833 261.399 924.615 268.72C920.869 275.221 915.597 282.353 907.585 283.418C903.834 283.916 898.944 282.201 896.081 279.674C892.868 276.839 893.828 272.163 893.854 268.309Z" fill="black"/>
<path fill-rule="evenodd" clip-rule="evenodd" d="M710.906 600.789C715.309 599.92 719.015 596.406 722.611 593.766C727.197 590.399 731.548 586.73 736.001 583.193C744.392 576.528 752.006 569.218 759.246 561.268C773.531 545.584 784.285 525.395 789.174 504.768C791.647 494.331 794.706 482.102 793.302 471.316C792.814 467.569 792.07 466.882 788.396 466.456C786.737 466.264 782.526 465.787 781.032 466.439C777.16 468.131 775.07 475.33 773.922 478.948C770.53 489.63 768.534 500.693 765.469 511.463C762.465 522.019 757.623 532.73 752.835 542.601C742.181 564.565 727.373 582.94 710.906 600.789ZM798.249 479.526C795.616 509.435 787.312 537.931 768.693 562.017C759.843 573.466 749.435 583.427 738.154 592.475C726.506 601.818 714.61 610.617 701.393 617.585C697.876 619.44 694.354 621.288 690.793 623.057C688.819 624.038 683.836 627.65 681.559 627.079C679.735 626.62 679.259 625.209 678.974 623.373C678.336 619.252 681.013 617.195 683.72 614.549C694.595 603.917 705.504 593.247 715.672 581.937C735.753 559.601 750.838 532.854 759.223 503.994C761.806 495.108 764.111 486.123 766.899 477.3C768.597 471.925 771.005 462.357 776.649 459.677C779.675 458.24 783.202 459.638 786.384 458.777C789.369 457.969 791.347 456.321 793.891 459.085C798.355 463.935 798.554 473.448 798.249 479.526Z" fill="black"/>
<path fill-rule="evenodd" clip-rule="evenodd" d="M2.71008 652.098C0.481084 652.888 0.388084 653.671 -0.632916 651.378C-1.14692 650.222 -1.00792 648.639 -0.886916 647.438C-0.596916 644.562 0.917084 641.905 2.16108 639.355C13.8691 649.013 26.0261 657.717 38.5801 666.25C52.0061 675.375 64.8251 685.521 77.5231 695.629C88.8941 704.682 100.402 713.467 111.654 722.633C117.081 727.054 123.268 730.48 128.427 735.036C132.596 738.718 139.51 740.368 143.064 744.699C137.432 748.065 129.913 750.775 123.672 747.863C116.787 744.651 111.506 740.464 105.379 736.111C102.222 733.868 98.9391 731.832 95.7321 729.662C92.9131 727.753 90.9221 724.967 88.0681 723.177C82.0701 719.414 75.9171 715.268 70.2261 710.971C64.3801 706.558 57.9181 703.047 52.2781 698.357C46.4961 693.548 40.0241 690.362 33.9871 685.984C21.1931 676.707 9.92708 666.272 2.71008 652.098Z" fill="black"/>
<path fill-rule="evenodd" clip-rule="evenodd" d="M347.893 159.473C347.734 160.327 347.575 161.181 347.416 162.036C347.513 162.058 355.169 147.268 356.437 145.482C360.739 139.427 366.337 134.389 371.734 129.332C383.166 118.62 396.546 109.974 407.749 99.071C411.435 95.484 418.039 90.049 416.581 83.984C415.132 77.956 402.9 79.181 398.711 80.925C392.144 83.66 386.81 89.38 381.916 94.364C376.578 99.801 371.197 105.177 366.673 111.33C361.795 117.965 357.164 125.151 354.175 132.851C350.826 141.477 349.518 150.404 347.893 159.473ZM350.407 185.937C345.212 187.539 351.725 188.621 349.69 191.397C347.458 194.441 343.706 185.062 343.145 183.291C339.838 172.828 341.317 160.117 343.123 149.494C344.035 144.135 344.624 138.688 345.854 133.387C347.054 128.218 349.667 123.306 352.081 118.604C356.914 109.196 363.314 100.431 370.577 92.76C377.862 85.064 385.982 77.364 395.595 72.626C403.538 68.713 416.128 71.428 419.846 79.975C423.645 88.709 418.507 98.223 412.431 104.364C404.505 112.373 395.869 120.328 386.966 127.234C382.391 130.784 378.556 135.077 374.111 138.781C369.38 142.724 365.287 146.69 361.789 151.789C358.401 156.73 354.914 161.667 352.712 167.276C350.301 173.418 350.407 179.439 350.407 185.937Z" fill="black"/>
<path fill-rule="evenodd" clip-rule="evenodd" d="M142.61 562.581C130.672 554.894 118.694 548.144 108.298 538.341C98.0345 528.662 89.0665 517.748 77.6425 509.35C71.9425 505.16 66.0595 501.227 60.4605 496.9C55.1465 492.793 49.0385 489.275 44.2355 484.591C37.8335 478.345 25.8475 466.739 34.0265 457.427C44.1785 469.501 58.1075 479.019 70.8065 488.185C84.1965 497.85 96.4865 509.125 109.187 519.655C121.422 529.798 133.616 540.035 145.555 550.447C148.69 553.182 151.714 556.054 154.886 558.745C155.274 559.074 158.562 561.157 158.562 561.711C158.562 563.041 156.014 563.872 155.106 564.242C153.673 564.826 149.797 566.277 148.172 565.786C147.32 565.528 147.305 564.834 146.691 564.422C146.338 563.756 145.926 563.129 145.458 562.539C144.508 562.554 143.559 562.569 142.61 562.581Z" fill="black"/>
<path fill-rule="evenodd" clip-rule="evenodd" d="M845.393 428.553C836.883 428.334 823.929 428.309 824.406 439.93C824.642 445.684 827.762 449.91 830.325 454.832C833.016 460.004 835.011 465.347 835.801 471.145C838.996 494.612 830.424 517.538 822.671 539.232C839.322 525.793 851.347 507.093 857.661 486.596C860.722 476.656 861.913 463.88 860.924 453.53C860.429 448.351 858.519 443.708 856.219 439.094C855.064 436.776 853.909 434.129 852.067 432.253C850.222 430.373 847.664 429.747 845.393 428.553ZM815.707 552.673C810.209 543.632 818.865 530.32 821.695 521.504C825.079 510.964 828.201 499.99 829.647 488.997C831.162 477.482 829.206 468.529 823.869 458.358C819.096 449.265 816.263 437.155 821.569 427.534C823.706 423.662 826.861 423.186 830.612 421.641C835.216 419.746 836.484 416.54 842.134 417.048C852.215 417.953 856.879 427.514 860.629 435.66C869.373 454.65 866.996 479.157 859.539 498.226C855.247 509.198 850.352 520.591 843.065 529.934C839.492 534.515 835.292 538.486 830.934 542.308C826.219 546.441 821.995 551.423 815.707 552.673Z" fill="black"/>
<path fill-rule="evenodd" clip-rule="evenodd" d="M240.03 222.973C226.74 225.644 214.612 231.634 212.483 246.57C210.548 260.144 219.794 272.702 231.148 279.056C243.428 285.93 258.815 287.072 271.051 279.454C283.932 271.434 286.854 255.362 279.014 242.753C270.266 228.682 255.611 224.529 240.03 222.973ZM248.571 216.461C264.397 218.78 279.088 230.043 284.419 245.212C289.915 260.849 284.865 278.041 270.315 286.609C240.91 303.926 201.609 275.067 208.706 241.897C210.508 233.475 215.625 226.953 222.577 222.022C230.252 216.577 239.533 216.429 248.571 216.461Z" fill="black"/>
<path fill-rule="evenodd" clip-rule="evenodd" d="M811.253 57.6649C792.184 49.0429 773.114 40.4209 754.045 31.7989C753.263 40.4429 752.481 49.0859 751.698 57.7299C751.486 60.0689 750.62 63.2509 750.989 65.5589C751.384 68.0219 750.541 67.7589 753.752 67.4089C757.858 66.9599 761.978 65.9459 766.042 65.2209C773.348 63.9169 781.118 63.5449 788.269 61.6269C791.918 60.6479 795.413 60.5249 799.117 59.9329C803.185 59.2829 807.144 58.0789 811.253 57.6649ZM746.747 74.3749C746.747 64.6379 747.829 55.0319 748.72 45.3399C749.522 36.6199 749.831 28.3079 752.677 19.9999C755.336 24.8289 762.699 26.7589 767.255 29.2439C773.533 32.6679 780.219 35.1889 786.645 38.3079C792.957 41.3709 799.037 44.8879 805.356 47.9439C808.56 49.4939 811.813 50.9399 815.011 52.5019C817.013 53.4799 821.761 55.0539 823.006 56.8699C826.787 62.3819 813.846 62.9149 811.348 63.4009C803.857 64.8619 796.279 65.6849 788.802 67.1869C781.831 68.5889 774.847 69.8899 767.851 71.1609C760.927 72.4189 753.793 74.3749 746.747 74.3749Z" fill="black"/>
<path fill-rule="evenodd" clip-rule="evenodd" d="M158.766 315.424C166.274 314.643 173.751 313.519 181.251 312.777C188.353 312.074 194.635 311.326 201.123 308.072C192.262 305.4 183.381 302.87 174.445 300.456C170.013 299.259 165.59 297.992 161.138 296.874C157.694 296.008 154.692 295.51 153.368 291.751C151.827 287.375 156.112 288.038 158.783 289.15C162.467 290.683 166.48 291.636 170.298 292.911C178.82 295.756 187.394 298.373 195.996 300.96C198.67 301.764 214.164 304.738 208.581 309.907C206.192 312.12 200.861 313.335 197.94 314.924C194.193 316.962 190.114 317.774 185.946 318.585C177.259 320.275 168.244 320.924 159.45 322.39C154.959 323.139 150.469 323.888 145.979 324.637C143.348 325.075 142.335 325.032 141.648 322.098C141.148 319.966 141.8 317.833 142.28 315.768C143.498 310.521 144.853 305.301 146.194 300.085C146.704 298.095 147.607 289.347 149.382 288.39C153.409 286.219 150.302 298.33 150.003 299.813C148.873 305.407 147.531 310.962 146.927 316.639C150.882 316.281 154.826 315.91 158.766 315.424Z" fill="black"/>
<path fill-rule="evenodd" clip-rule="evenodd" d="M265.224 359.96C266.714 363.701 264.24 364.538 261.238 365.834C257.344 367.515 253.514 369.289 249.549 370.803C241.208 373.986 232.807 376.942 224.665 380.625C209.136 387.648 193.397 394.392 178.109 401.912C174.31 403.781 170.508 405.643 166.675 407.443C162.711 409.305 158.165 412.438 153.924 413.502C150.225 414.43 149.839 411.796 152.031 409.37C154.857 406.241 159.226 403.905 162.775 401.73C177.381 392.777 193.322 385.489 209.275 379.33C227.714 372.21 246.203 365.379 265.224 359.96Z" fill="black"/>
<path fill-rule="evenodd" clip-rule="evenodd" d="M305.769 147.733C305.235 136.359 306.756 124.954 305.849 113.61C290.253 127.436 297.937 148.803 306.909 163.805L305.769 147.733ZM312.52 147.083C312.619 152.639 312.934 158.192 312.394 163.72C311.827 169.523 314.549 172.512 318.097 176.786C315.084 179.844 308.17 172.714 306.261 170.612C302.33 166.284 299.405 160.534 296.802 155.337C291.258 144.266 287.44 132.413 291.877 120.258C293.522 115.753 295.534 109.628 299.889 107.005C304.671 104.125 308.329 108.187 310.313 112.365C315.157 122.559 311.464 136.141 312.52 147.083Z" fill="black"/>
<path fill-rule="evenodd" clip-rule="evenodd" d="M477.74 712.462C484.931 713.032 492.015 713.593 499.207 714.049C497.966 704.191 496.724 694.332 495.483 684.473C491.322 685.437 487.161 686.4 483 687.362C481.033 687.817 478.016 687.937 476.275 688.919C475.624 689.069 474.972 689.22 474.322 689.371C474.304 690.65 474.29 691.93 474.278 693.21C474.229 696.996 474.12 700.778 473.963 704.561C473.897 706.146 473.344 708.467 473.723 710.037C473.05 711.625 473.478 712.3 475.011 712.062C475.921 712.195 476.83 712.329 477.74 712.462ZM472.789 719.589C467.152 716.782 468.693 708.206 468.702 702.747C468.709 699.274 468.954 695.824 469.045 692.356C469.108 689.972 468.563 687.022 469.383 684.719C470.842 680.622 477.981 680.733 481.652 681.02C484.374 681.232 486.652 681.095 489.442 680.916C490.817 680.828 492.351 681.09 493.702 680.684C493.994 680.596 496.743 678.679 496.621 678.674C501.552 678.863 501.618 690.686 501.938 693.686C502.729 701.081 503.445 708.489 504.089 715.899C504.26 717.86 504.989 720.077 503.126 721.196C501.446 722.206 496.993 721.208 495.135 721.151C487.645 720.925 480.197 719.757 472.789 719.589Z" fill="black"/>
<path fill-rule="evenodd" clip-rule="evenodd" d="M824.672 280.274C827.931 283.207 826.365 286.233 825.298 289.897C824.656 292.096 821.13 299.316 822.103 301.373C823.228 303.751 828.51 304.336 830.769 305.087C834.703 306.395 838.655 307.709 842.378 309.553C844.03 310.372 849.989 312.254 851.106 313.782C851.746 314.658 851.979 315.344 851.498 316.473C850.653 318.455 849.448 317.406 847.389 316.981C837.98 315.037 828.651 312.551 819.925 308.451C817.492 314.098 815.432 319.865 813.374 325.659C812.771 327.357 812.195 331.215 809.904 331.49C807.11 331.824 807.072 328.082 807.258 326.063C807.528 323.115 809.056 319.972 809.978 317.181C810.739 314.877 813.408 310.08 813.079 307.706C812.854 306.072 811.858 306.186 810.083 305.544C808.406 304.938 806.728 304.335 805.052 303.722C802.365 302.739 799.689 301.753 797.074 300.587C795.639 299.947 792.636 299.199 791.597 297.871C790.994 297.101 790.322 294.326 791.083 293.558C792.862 291.759 804.694 296.601 807.127 297.262C808.741 297.701 810.363 298.036 811.929 298.611C812.522 298.83 813.224 299.718 813.865 299.751C816.587 299.889 816.803 297.796 817.647 295.551C819.608 290.334 821.737 285.012 824.672 280.274Z" fill="black"/>
<path fill-rule="evenodd" clip-rule="evenodd" d="M146.291 384.069C144.84 380.512 160.241 376.215 163.1 375.017C170.078 372.096 177.554 370.329 184.779 368.098C191.884 365.904 198.958 363.542 205.946 361.003C208.107 360.217 223.669 352.64 224.483 353.748C227.18 357.414 194.524 368.93 191.342 370.076C176.566 375.396 161.309 379.481 146.291 384.069Z" fill="black"/>
<path fill-rule="evenodd" clip-rule="evenodd" d="M808.689 105.903C804.697 105.943 798.939 107.075 795.276 105.455C799.747 105.604 804.218 105.754 808.689 105.903Z" fill="black"/>
<path fill-rule="evenodd" clip-rule="evenodd" d="M248.571 216.461L239.694 216.429C242.656 215.742 245.616 215.327 248.571 216.461Z" fill="black"/>
<path fill-rule="evenodd" clip-rule="evenodd" d="M710.845 214.09C712.938 214.079 715.032 214.068 717.111 214.056C715.013 214.068 712.929 214.079 710.845 214.09Z" fill="black"/>
<path fill-rule="evenodd" clip-rule="evenodd" d="M893.854 268.31C893.838 270.549 893.824 272.788 893.805 275.018C893.819 272.776 893.836 270.543 893.854 268.31Z" fill="black"/>
<path fill-rule="evenodd" clip-rule="evenodd" d="M481.652 681.02C479.429 681.181 477.206 681.341 474.985 681.501C477.209 681.341 479.43 681.18 481.652 681.02Z" fill="black"/>
<path fill-rule="evenodd" clip-rule="evenodd" d="M494.18 254.29C491.922 254.473 489.664 254.657 487.409 254.84C489.666 254.656 491.923 254.473 494.18 254.29Z" fill="black"/>
<path fill-rule="evenodd" clip-rule="evenodd" d="M727.806 213.353C729.404 213.35 731.001 213.347 732.586 213.344C730.984 213.348 729.395 213.351 727.806 213.353Z" fill="black"/>
<path fill-rule="evenodd" clip-rule="evenodd" d="M406.347 258.658C404.362 258.837 402.375 259.016 400.391 259.195C402.376 259.016 404.362 258.837 406.347 258.658Z" fill="black"/>
<path fill-rule="evenodd" clip-rule="evenodd" d="M494.042 116.934C492.056 116.946 490.07 116.958 488.085 116.97C490.065 115.92 492.052 116.191 494.042 116.934Z" fill="black"/>
<path fill-rule="evenodd" clip-rule="evenodd" d="M131.572 460.383C129.92 460.295 128.574 461.097 127.642 459.521C129.167 458.332 130.047 459.702 131.572 460.383Z" fill="black"/>
<path fill-rule="evenodd" clip-rule="evenodd" d="M472.789 719.59C473.928 719.616 475.066 719.641 476.192 719.667C475.049 719.64 473.919 719.615 472.789 719.59Z" fill="black"/>
<path fill-rule="evenodd" clip-rule="evenodd" d="M737.367 109.145C735.593 109.304 733.817 109.463 732.043 109.622C733.818 109.462 735.593 109.304 737.367 109.145Z" fill="black"/>
<path fill-rule="evenodd" clip-rule="evenodd" d="M174.869 647.586C173.164 647.593 171.46 647.601 169.756 647.607C171.461 647.6 173.165 647.593 174.869 647.586Z" fill="black"/>
<path fill-rule="evenodd" clip-rule="evenodd" d="M472.655 255.709C470.908 255.881 469.161 256.052 467.414 256.224C469.162 256.052 470.908 255.881 472.655 255.709Z" fill="black"/>
<path fill-rule="evenodd" clip-rule="evenodd" d="M423.911 258.544C422.192 258.346 420.474 258.148 418.756 257.95C420.459 258.283 422.351 256.968 423.911 258.544Z" fill="black"/>
<path fill-rule="evenodd" clip-rule="evenodd" d="M579.584 327.541C580.654 327.42 582.156 327.045 583.259 327.22C583.115 327.85 579.995 327.539 579.584 327.541Z" fill="black"/>
<path fill-rule="evenodd" clip-rule="evenodd" d="M470.55 462.378C471.703 462.4 472.857 462.422 473.998 462.441C472.841 462.42 471.696 462.399 470.55 462.378Z" fill="black"/>
<path fill-rule="evenodd" clip-rule="evenodd" d="M366.404 325.057C364.72 325.22 363.037 325.384 361.353 325.546C363.038 325.383 364.72 325.22 366.404 325.057Z" fill="black"/>
<path fill-rule="evenodd" clip-rule="evenodd" d="M177.869 319.318C178.787 319.343 179.705 319.368 180.611 319.393C179.689 319.368 178.779 319.343 177.869 319.318Z" fill="black"/>
<path fill-rule="evenodd" clip-rule="evenodd" d="M426.04 326.325C424.6 326.296 423.159 326.267 421.72 326.239C423.16 326.267 424.6 326.296 426.04 326.325Z" fill="black"/>
<path fill-rule="evenodd" clip-rule="evenodd" d="M158.766 315.424C157.31 315.604 155.854 315.783 154.4 315.962C155.857 315.782 157.311 315.603 158.766 315.424Z" fill="black"/>
<path fill-rule="evenodd" clip-rule="evenodd" d="M358.491 303.055C359.39 303.091 360.289 303.127 361.177 303.166C360.273 303.132 359.382 303.094 358.491 303.055Z" fill="black"/>
<path fill-rule="evenodd" clip-rule="evenodd" d="M427.089 454.285C428.002 454.225 428.914 454.166 429.815 454.105C428.899 454.164 427.994 454.225 427.089 454.285Z" fill="black"/>
<path fill-rule="evenodd" clip-rule="evenodd" d="M496.931 335.864C495.463 335.681 493.994 335.498 492.528 335.315C493.995 335.498 495.463 335.681 496.931 335.864Z" fill="black"/>
<path fill-rule="evenodd" clip-rule="evenodd" d="M142.61 562.581C143.563 562.568 144.516 562.556 145.458 562.54C144.502 562.553 143.555 562.567 142.61 562.581Z" fill="black"/>
<path fill-rule="evenodd" clip-rule="evenodd" d="M64.3644 444.161C62.8464 444.008 61.3284 443.855 59.8094 443.702C61.3274 443.855 62.8454 444.008 64.3644 444.161Z" fill="black"/>
<path fill-rule="evenodd" clip-rule="evenodd" d="M31.9738 617.573C30.4818 617.745 28.9898 617.918 27.4968 618.09C28.9908 617.917 30.4818 617.745 31.9738 617.573Z" fill="black"/>
<path fill-rule="evenodd" clip-rule="evenodd" d="M845.317 213.848C845.2 215.138 845.083 216.428 844.963 217.713C845.08 216.421 845.198 215.135 845.317 213.848Z" fill="black"/>
<path fill-rule="evenodd" clip-rule="evenodd" d="M183.786 646.297C182.285 646.469 180.784 646.642 179.284 646.814C180.785 646.641 182.286 646.469 183.786 646.297Z" fill="black"/>
<path fill-rule="evenodd" clip-rule="evenodd" d="M169.06 647.785C167.541 648.846 166.023 648.906 164.503 647.789C166.022 647.787 167.541 647.786 169.06 647.785Z" fill="black"/>
<path fill-rule="evenodd" clip-rule="evenodd" d="M140.26 649.054C138.787 649.055 137.315 649.056 135.843 649.057C137.316 649.056 138.788 649.055 140.26 649.054Z" fill="black"/>
<path fill-rule="evenodd" clip-rule="evenodd" d="M312.52 147.083C312.394 145.776 312.268 144.47 312.142 143.168C312.268 144.477 312.394 145.78 312.52 147.083Z" fill="black"/>
<path fill-rule="evenodd" clip-rule="evenodd" d="M473.377 117.898C471.897 118.081 470.417 118.263 468.938 118.445C470.418 118.263 471.898 118.081 473.377 117.898Z" fill="black"/>
<path fill-rule="evenodd" clip-rule="evenodd" d="M245.023 291.361C245.949 291.347 246.875 291.333 247.788 291.319C246.858 291.333 245.941 291.347 245.023 291.361Z" fill="black"/>
<path fill-rule="evenodd" clip-rule="evenodd" d="M379.02 276.887C383.932 276.077 388.843 275.807 393.753 276.884L379.02 276.887Z" fill="black"/>
<path fill-rule="evenodd" clip-rule="evenodd" d="M510.007 221.64C511.029 218.97 511.283 217.968 513.779 216.586C512.74 219.181 512.577 220.569 510.007 221.64Z" fill="black"/>
<path fill-rule="evenodd" clip-rule="evenodd" d="M629.774 485.879C629.873 488.655 629.971 491.431 630.069 494.204C629.97 491.427 629.872 488.653 629.774 485.879Z" fill="black"/>
<path fill-rule="evenodd" clip-rule="evenodd" d="M807.885 112.315C805.663 112.365 803.442 112.416 801.23 112.466C803.455 112.416 805.67 112.365 807.885 112.315Z" fill="black"/>
<path fill-rule="evenodd" clip-rule="evenodd" d="M511.908 535.218C511.986 537.532 512.063 539.847 512.14 542.159C512.062 539.843 511.985 537.531 511.908 535.218Z" fill="black"/>
<path fill-rule="evenodd" clip-rule="evenodd" d="M430.416 342.201C429.063 342.214 427.712 342.226 426.373 342.243C427.729 342.231 429.072 342.216 430.416 342.201Z" fill="black"/>
<path fill-rule="evenodd" clip-rule="evenodd" d="M426.011 268.639C424.899 268.601 423.786 268.563 422.686 268.529C423.803 268.568 424.907 268.603 426.011 268.639Z" fill="black"/>
<path fill-rule="evenodd" clip-rule="evenodd" d="M247.094 461.118C248.874 460.963 250.654 460.808 252.435 460.653C250.655 460.807 248.874 460.963 247.094 461.118Z" fill="black"/>
<path fill-rule="evenodd" clip-rule="evenodd" d="M253.585 463.94C252.7 463.935 251.815 463.929 250.942 463.924C251.831 463.93 252.708 463.935 253.585 463.94Z" fill="black"/>
<path fill-rule="evenodd" clip-rule="evenodd" d="M628.997 424.168C629.129 422.863 629.262 421.559 629.393 420.259C629.262 421.565 629.129 422.866 628.997 424.168Z" fill="black"/>
<path fill-rule="evenodd" clip-rule="evenodd" d="M363.226 292.298C364.342 292.393 365.459 292.488 366.577 292.584C365.33 292.648 364.082 292.711 362.836 292.775C362.843 292.519 362.973 292.36 363.226 292.298Z" fill="black"/>
<path fill-rule="evenodd" clip-rule="evenodd" d="M650.05 511.715C649.979 510.527 649.907 509.338 649.838 508.157C649.909 509.348 649.98 510.532 650.05 511.715Z" fill="black"/>
<path fill-rule="evenodd" clip-rule="evenodd" d="M383.265 287.765C382.369 287.783 381.472 287.8 380.587 287.817C381.488 287.799 382.376 287.782 383.265 287.765Z" fill="black"/>
<path fill-rule="evenodd" clip-rule="evenodd" d="M401.064 339.296C400.144 339.31 399.225 339.323 398.317 339.339C399.24 339.326 400.152 339.311 401.064 339.296Z" fill="black"/>
<path fill-rule="evenodd" clip-rule="evenodd" d="M347.893 159.473C348.858 159.988 348.357 162.252 347.416 162.036C347.575 161.181 347.734 160.327 347.893 159.473Z" fill="black"/>
<path fill-rule="evenodd" clip-rule="evenodd" d="M845.393 428.553C844.506 428.53 843.62 428.507 842.746 428.484C843.635 428.508 844.514 428.531 845.393 428.553Z" fill="black"/>
<path fill-rule="evenodd" clip-rule="evenodd" d="M305.769 147.733C305.675 145.738 305.582 143.744 305.489 141.755C305.582 143.752 305.676 145.742 305.769 147.733Z" fill="black"/>
<path fill-rule="evenodd" clip-rule="evenodd" d="M473.646 711.862C475.012 712.062 476.377 712.262 477.742 712.462C476.375 712.262 475.011 712.062 473.646 711.862Z" fill="black"/>
<path fill-rule="evenodd" clip-rule="evenodd" d="M464.619 198.278C459.804 199.269 454.859 199.787 450.157 201.246C448.984 201.61 445.134 203.846 443.729 203.257C441.594 202.36 442.674 200.059 443.573 198.831C445.979 195.547 450.283 193.707 454.23 193.748C458.169 193.79 463.577 193.646 464.619 198.278Z" fill="black"/>
<path fill-rule="evenodd" clip-rule="evenodd" d="M451.241 207.088C456.543 210.799 460.593 212.627 461.042 204.286C466.788 205.069 464.213 214.323 459.865 215.021C455.133 215.78 451.976 211.053 451.241 207.088Z" fill="black"/>
</g>
<defs>
<clipPath id="clip0_0_1">
<rect width="1024" height="768" fill="white"/>
</clipPath>
</defs>
</svg>
